<?xml version="1.0" encoding="UTF-8" standalone="no"?>
<!-- Uploaded to: SVG Repo, www.svgrepo.com, Generator: SVG Repo Mixer Tools -->

<svg
   fill="#000000"
   width="800px"
   height="800px"
   viewBox="0 0 24 24"
   xml:space="preserve"
   version="1.1"
   id="svg4"
   sodipodi:docname="mastodon.svg"
   inkscape:version="1.1.2 (b8e25be833, 2022-02-05)"
   xmlns:inkscape="http://www.inkscape.org/namespaces/inkscape"
   xmlns:sodipodi="http://sodipodi.sourceforge.net/DTD/sodipodi-0.dtd"
   xmlns="http://www.w3.org/2000/svg"
   xmlns:svg="http://www.w3.org/2000/svg"><defs
     id="defs8" /><sodipodi:namedview
     id="namedview6"
     pagecolor="#ffffff"
     bordercolor="#666666"
     borderopacity="1.0"
     inkscape:pageshadow="2"
     inkscape:pageopacity="0.0"
     inkscape:pagecheckerboard="0"
     showgrid="false"
     inkscape:zoom="0.9975"
     inkscape:cx="399.49875"
     inkscape:cy="397.99499"
     inkscape:window-width="1920"
     inkscape:window-height="991"
     inkscape:window-x="-9"
     inkscape:window-y="-9"
     inkscape:window-maximized="1"
     inkscape:current-layer="svg4" /><path
     d="M21.327 8.566c0-4.339-2.843-5.61-2.843-5.61-1.433-.658-3.894-.935-6.451-.956h-.063c-2.557.021-5.016.298-6.45.956 0 0-2.843 1.272-2.843 5.61 0 .993-.019 2.181.012 3.441.103 4.243.778 8.425 4.701 9.463 1.809.479 3.362.579 4.612.51 2.268-.126 3.541-.809 3.541-.809l-.075-1.646s-1.621.511-3.441.449c-1.804-.062-3.707-.194-3.999-2.409a4.523 4.523 0 0 1-.04-.621s1.77.433 4.014.536c1.372.063 2.658-.08 3.965-.236 2.506-.299 4.688-1.843 4.962-3.254.434-2.223.398-5.424.398-5.424zm-3.353 5.59h-2.081V9.057c0-1.075-.452-1.62-1.357-1.62-1 0-1.501.647-1.501 1.927v2.791h-2.069V9.364c0-1.28-.501-1.927-1.502-1.927-.905 0-1.357.546-1.357 1.62v5.099H6.026V8.903c0-1.074.273-1.927.823-2.558.566-.631 1.307-.955 2.228-.955 1.065 0 1.872.409 2.405 1.228l.518.869.519-.869c.533-.819 1.34-1.228 2.405-1.228.92 0 1.662.324 2.228.955.549.631.822 1.484.822 2.558v5.253z"
     id="path2" /><path
     style="fill:#ffffff;stroke:#ec0002;stroke-width:1"
     d="M 356.89223,732.18256 C 321.85664,730.92147 284.40898,725.12581 247.13347,715.19555 177.8731,696.74444 132.91304,647.75448 110.30229,566.09979 100.92317,532.22878 95.304708,494.60341 91.636919,441.10276 89.958041,416.61359 89.228374,281.39877 90.67786,263.37926 c 4.690482,-58.31044 23.72977,-103.35295 58.14804,-137.56472 12.28189,-12.2082 25.1955,-21.73683 36.81262,-27.163103 37.47758,-17.505518 106.07027,-28.720069 188.611,-30.836924 101.34692,-2.599162 196.44108,9.787242 241.37518,31.440111 39.27557,18.926136 72.74913,64.688796 86.67282,118.492886 6.56875,25.38301 7.45112,35.32514 7.41122,83.50562 -0.0449,54.21342 -2.10204,90.32254 -7.56751,132.83208 -3.3566,26.10709 -6.23805,38.91828 -10.84406,48.21359 -19.47738,39.307 -74.89567,75.09882 -136.37916,88.08029 -21.42521,4.52367 -71.02901,9.82286 -109.10012,11.65522 -46.41536,2.23395 -107.29103,-3.13451 -163.36175,-14.40643 l -16.29073,-3.27494 0.004,7.54784 c 0.005,9.15871 2.19721,23.25242 5.08162,32.66822 3.91057,12.76561 9.55314,22.16919 19.00072,31.66552 7.63049,7.66987 9.93858,9.30745 20.08692,14.25168 17.91977,8.73041 35.20336,12.44981 68.60867,14.7645 42.2353,2.92651 87.28053,-1.0208 126.80279,-11.11172 4.54657,-1.16084 8.53551,-1.84161 8.86432,-1.5128 0.3288,0.32879 0.92422,8.13369 1.32315,17.34421 0.39895,9.21052 0.96856,20.93006 1.26581,26.04341 l 0.54046,9.29702 -5.73912,2.55207 c -14.39832,6.40266 -39.58388,13.91939 -59.87445,17.86975 -28.97663,5.64145 -59.76684,7.72669 -95.2381,6.44992 z M 271.19535,381.20301 c 0.0188,-98.76463 0.0231,-98.85272 5.37199,-110.53628 7.4299,-16.22906 25.7958,-24.68663 47.07353,-21.67757 15.61994,2.20896 27.2485,10.25592 33.56091,23.22415 7.18277,14.75629 8.20983,25.56776 8.21091,86.43331 l 8.4e-4,46.86716 H 400 434.58647 l 0.009,-46.36591 c 0.0113,-61.0816 1.05299,-72.24188 8.09365,-86.71209 8.5007,-17.47093 27.55242,-26.53248 49.31373,-23.45503 14.75348,2.08642 25.13977,9.02065 30.81112,20.57055 6.02077,12.26146 5.97203,11.35316 5.99111,111.65171 l 0.017,91.47869 h 35.64363 35.64365 l -0.38437,-96.99248 c -0.28284,-71.37508 -0.71536,-98.96357 -1.63755,-104.45542 -6.55907,-39.06053 -24.89792,-67.08813 -53.11512,-81.17681 -35.18765,-17.569 -81.78068,-13.55671 -109.66508,9.44364 -9.49273,7.83005 -15.47333,15.48573 -25.86104,33.10438 -5.03118,8.53341 -9.2553,15.51529 -9.38692,15.51529 -0.13162,0 -4.62315,-7.37691 -9.98116,-16.39313 -13.89814,-23.38714 -24.22069,-34.01321 -41.40984,-42.62739 -21.75239,-10.90101 -54.48194,-12.94457 -79.49533,-4.96351 -36.18614,11.54598 -59.67784,41.97331 -67.26384,87.12269 -0.91776,5.4622 -1.35179,33.20029 -1.63406,104.43026 l -0.38437,96.99248 h 35.64365 35.64363 l 0.0174,-91.47869 z"
     id="path84"
     transform="scale(0.03)" /></svg>
